<svg width="1024" height="1024" viewBox="0 0 1024 1024" fill="none" xmlns="http://www.w3.org/2000/svg">
  <g transform="translate(102.4, 102.4) scale(0.8)">
    <path d="M759 0H265C118.645 0 0 118.645 0 265V759C0 905.355 118.645 1024 265 1024H759C905.355 1024 1024 905.355 1024 759V265C1024 118.645 905.355 0 759 0Z" fill="#D9D9D9"/>
    <path d="M502.383 651.8C466.916 651.8 433.849 646.867 403.183 637L397.583 560.2H401.183C424.916 614.6 459.183 641.8 503.983 641.8C524.249 641.8 539.849 638.333 550.783 631.4C561.716 624.2 567.183 613.667 567.183 599.8C567.183 592.6 565.449 586.067 561.983 580.2C558.516 574.067 552.916 568.333 545.183 563C537.716 557.4 530.116 552.6 522.383 548.6C514.649 544.6 504.649 539.8 492.383 534.2L478.783 528.2C471.316 525 464.783 521.933 459.183 519C453.583 516.067 447.316 512.6 440.383 508.6C433.716 504.6 427.983 500.467 423.183 496.2C418.383 491.933 413.849 487.4 409.583 482.6C405.316 477.533 402.116 472.067 399.983 466.2C397.849 460.067 396.783 453.8 396.783 447.4C396.783 430.6 402.116 416.333 412.783 404.6C423.716 392.867 437.983 384.467 455.583 379.4C473.183 374.067 493.716 371.4 517.183 371.4C545.449 371.4 575.449 376.2 607.183 385.8L613.983 463H610.783C599.316 436.867 585.449 416.733 569.183 402.6C552.916 388.467 532.916 381.4 509.183 381.4C493.183 381.4 480.516 385 471.183 392.2C461.849 399.133 457.183 408.333 457.183 419.8C457.183 426.2 458.516 431.933 461.183 437C464.116 442.067 468.649 446.733 474.783 451C481.183 455 487.449 458.467 493.583 461.4C499.716 464.333 507.849 467.8 517.983 471.8L534.783 478.6C547.583 483.667 559.049 489 569.183 494.6C579.316 499.933 589.049 506.467 598.383 514.2C607.716 521.667 614.916 530.333 619.983 540.2C625.049 550.067 627.583 560.733 627.583 572.2C627.583 590.067 621.716 605.133 609.983 617.4C598.516 629.667 583.583 638.467 565.183 643.8C546.783 649.133 525.849 651.8 502.383 651.8ZM684.717 646.2C680.184 650.733 674.584 653 667.917 653C661.517 653 656.051 650.733 651.517 646.2C646.984 641.667 644.717 636.2 644.717 629.8C644.717 623.133 646.984 617.533 651.517 613C656.051 608.467 661.517 606.2 667.917 606.2C674.584 606.2 680.184 608.467 684.717 613C689.517 617.533 691.917 623.133 691.917 629.8C691.917 636.2 689.517 641.667 684.717 646.2Z" fill="black"/>
  </g>
</svg>
