<svg width="250" height="250" viewBox="0 0 250 250" fill="none" xmlns="http://www.w3.org/2000/svg">
<rect width="250" height="250" fill="#D9D9D9"/>
<path d="M122.823 166.616C111.473 166.616 100.892 165.037 91.0785 161.88L89.2865 137.304H90.4385C98.0332 154.712 108.999 163.416 123.335 163.416C129.82 163.416 134.812 162.307 138.311 160.088C141.809 157.784 143.559 154.413 143.559 149.976C143.559 147.672 143.004 145.581 141.895 143.704C140.785 141.741 138.993 139.907 136.519 138.2C134.129 136.408 131.697 134.872 129.223 133.592C126.748 132.312 123.548 130.776 119.623 128.984L115.271 127.064C112.881 126.04 110.791 125.059 108.999 124.12C107.207 123.181 105.201 122.072 102.983 120.792C100.849 119.512 99.0145 118.189 97.4785 116.824C95.9425 115.459 94.4918 114.008 93.1265 112.472C91.7612 110.851 90.7372 109.101 90.0545 107.224C89.3718 105.261 89.0305 103.256 89.0305 101.208C89.0305 95.832 90.7372 91.2667 94.1505 87.512C97.6492 83.7573 102.215 81.0693 107.847 79.448C113.479 77.7413 120.049 76.888 127.559 76.888C136.604 76.888 146.204 78.424 156.359 81.496L158.535 106.2H157.511C153.841 97.8373 149.404 91.3947 144.199 86.872C138.993 82.3493 132.593 80.088 124.999 80.088C119.879 80.088 115.825 81.24 112.839 83.544C109.852 85.7627 108.359 88.7067 108.359 92.376C108.359 94.424 108.785 96.2587 109.639 97.88C110.577 99.5013 112.028 100.995 113.991 102.36C116.039 103.64 118.044 104.749 120.007 105.688C121.969 106.627 124.572 107.736 127.815 109.016L133.191 111.192C137.287 112.813 140.956 114.52 144.199 116.312C147.441 118.019 150.556 120.109 153.543 122.584C156.529 124.973 158.833 127.747 160.455 130.904C162.076 134.061 162.887 137.475 162.887 141.144C162.887 146.861 161.009 151.683 157.255 155.608C153.585 159.533 148.807 162.349 142.919 164.056C137.031 165.763 130.332 166.616 122.823 166.616Z" fill="black"/>
</svg>
